<?xml version="1.0" standalone="no"?>
<!-- Generator: Adobe Fireworks 10, Export SVG Extension by Aaron Beall (http://fireworks.abeall.com) . Version: 0.6.1  -->
<!DOCTYPE svg PUBLIC "-//W3C//DTD SVG 1.1//EN" "http://www.w3.org/Graphics/SVG/1.1/DTD/svg11.dtd">
<svg id="Untitled-Page%201" viewBox="0 0 26 28" style="background-color:#ffffff00" version="1.1"
	xmlns="http://www.w3.org/2000/svg" xmlns:xlink="http://www.w3.org/1999/xlink" xml:space="preserve"
	x="0px" y="0px" width="26px" height="28px"
>
	<path id="cup" d="M 23.5941 9.1079 C 22.2848 10.4648 20.4986 11.1509 18.2811 11.1509 L 18.3078 10.1038 C 20.2274 10.1038 21.7555 9.5281 22.8521 8.3892 C 24.4542 6.7241 24.7666 4.2676 24.8256 3.2212 L 21.1235 3.2212 L 21.1277 3.0774 C 20.3359 7.0051 18.3213 9.7915 16.6556 12.0869 C 16.1435 12.792 15.6609 13.4575 15.2649 14.0879 C 15.0168 14.4829 15.0378 16.0161 15.1974 17.3713 L 19.4035 17.3713 L 19.1542 26.5005 L 5.3814 26.5005 L 5.4514 17.3713 L 10.1788 17.3713 C 10.3857 16.0967 10.4568 14.6772 10.2349 14.3438 C 9.8396 13.7495 9.3657 13.1296 8.8629 12.4722 C 8.3653 11.821 7.8383 11.1289 7.3216 10.3809 L 7.3138 11.1509 C 5.2247 11.1509 3.3368 10.4648 2.0767 9.1079 C -0.2257 6.6279 -0.0001 2.813 0.0107 2.6511 L 0.0448 2.1511 L 4.1 2.1511 C 4.0444 1.6367 4.0036 1.1082 3.9938 0.5522 L 3.9839 0 L 21.4786 0 L 21.4495 0.5522 C 21.4203 1.1064 21.3617 1.636 21.2871 2.1511 L 25.8799 2.1511 L 25.8948 2.6511 C 25.8999 2.813 25.9861 6.6279 23.5941 9.1079 ZM 1.0613 3.2212 C 1.084 4.271 1.3087 6.7349 2.849 8.3931 C 3.8694 9.4924 5.1525 10.0603 7.1283 10.0967 C 5.8881 8.2534 4.7422 6.052 4.2494 3.2212 L 1.0613 3.2212 ZM 5.0692 1.0774 C 5.314 6.0884 7.7434 9.2739 9.6932 11.8315 C 10.2058 12.5049 10.6892 13.1387 11.1024 13.761 C 11.7004 14.6616 11.2653 17.2153 11.1183 17.9741 L 11.0362 18.3977 L 6.4756 18.3977 L 6.4108 25.4985 L 18.16 25.4985 L 18.3435 18.3977 L 14.2936 18.3977 L 14.231 17.9678 C 14.1489 17.4053 13.769 14.5374 14.388 13.5493 C 14.8025 12.8887 15.2949 12.2075 15.8173 11.4863 C 17.662 8.9377 19.9592 5.7646 20.3553 1.0774 L 5.0692 1.0774 ZM 16.6714 23.988 L 7.9521 23.988 L 7.9979 19.9307 L 16.7675 19.9307 L 16.6714 23.988 ZM 15.7132 20.9497 L 9.0166 20.9497 L 8.9908 22.9785 L 15.6681 22.9785 L 15.7132 20.9497 ZM 21.9312 28 L 3.062 28 L 3.0664 27.0015 L 21.9625 27.0015 L 21.9312 28 Z" fill="#ffffff"/>
</svg>