<?xml version="1.0" standalone="no"?>
<!-- Generator: Adobe Fireworks 10, Export SVG Extension by Aaron Beall (http://fireworks.abeall.com) . Version: 0.6.1  -->
<!DOCTYPE svg PUBLIC "-//W3C//DTD SVG 1.1//EN" "http://www.w3.org/Graphics/SVG/1.1/DTD/svg11.dtd">
<svg id="Untitled-Page%201" viewBox="0 0 21 27" style="background-color:#ffffff00" version="1.1"
	xmlns="http://www.w3.org/2000/svg" xmlns:xlink="http://www.w3.org/1999/xlink" xml:space="preserve"
	x="0px" y="0px" width="21px" height="27px"
>
	<g id="Layer%201">
		<path id="location" d="M 10.57 26.7275 L 10.164 26.2942 C 9.7717 25.875 0.5593 15.9807 0.5593 10.6094 C 0.5593 5.0967 5.05 0.6118 10.57 0.6118 C 16.09 0.6118 20.5808 5.0967 20.5808 10.6094 C 20.5808 15.9807 11.3684 25.875 10.976 26.2942 L 10.57 26.7275 ZM 10.57 1.7224 C 5.6635 1.7224 1.6715 5.7087 1.6715 10.6094 C 1.6715 14.9441 8.7775 23.1013 10.57 25.0906 C 12.3626 23.1013 19.4685 14.9441 19.4685 10.6094 C 19.4685 5.7087 15.4766 1.7224 10.57 1.7224 ZM 10.57 16.9343 C 7.0775 16.9343 4.2361 14.0967 4.2361 10.6094 C 4.2361 7.1211 7.0775 4.2837 10.57 4.2837 C 14.0626 4.2837 16.9039 7.1211 16.9039 10.6094 C 16.9039 14.0967 14.0626 16.9343 10.57 16.9343 ZM 10.57 5.3943 C 7.6909 5.3943 5.3484 7.7334 5.3484 10.6094 C 5.3484 13.4844 7.6909 15.824 10.57 15.824 C 13.4492 15.824 15.7916 13.4844 15.7916 10.6094 C 15.7916 7.7334 13.4492 5.3943 10.57 5.3943 Z" fill="#ffffff"/>
	</g>
</svg>