<?xml version="1.0" standalone="no"?>
<!-- Generator: Adobe Fireworks 10, Export SVG Extension by Aaron Beall (http://fireworks.abeall.com) . Version: 0.6.1  -->
<!DOCTYPE svg PUBLIC "-//W3C//DTD SVG 1.1//EN" "http://www.w3.org/Graphics/SVG/1.1/DTD/svg11.dtd">
<svg id="Untitled-Page%201" viewBox="0 0 49 51" style="background-color:#ffffff00" version="1.1"
	xmlns="http://www.w3.org/2000/svg" xmlns:xlink="http://www.w3.org/1999/xlink" xml:space="preserve"
	x="0px" y="0px" width="49px" height="51px"
>
	<path id="19" d="M 40.5869 38.3584 L 40.5869 51 L 32.2246 42.6064 C 29.7083 43.3604 27.1158 43.7441 24.4978 43.7441 C 10.9886 43.7441 0 33.9316 0 21.8691 C 0 9.8125 10.9886 0 24.4978 0 C 38.0114 0 49 9.8125 49 21.8691 C 49 28.2051 45.9414 34.1934 40.5869 38.3584 ZM 24.4978 1.7852 C 11.9714 1.7852 1.7749 10.7949 1.7749 21.8691 C 1.7749 32.9453 11.9714 41.96 24.4978 41.96 C 27.1116 41.96 29.7 41.5508 32.2036 40.7461 L 32.7203 40.5811 L 38.8077 46.6924 L 38.8077 37.4688 L 39.1678 37.2002 C 44.2893 33.3633 47.225 27.7773 47.225 21.8691 C 47.225 10.7949 37.0243 1.7852 24.4978 1.7852 ZM 33.5845 25.9053 C 31.4493 25.9053 29.7083 24.1582 29.7083 22.0146 C 29.7083 19.873 31.4493 18.125 33.5845 18.125 C 35.7238 18.125 37.4606 19.873 37.4606 22.0146 C 37.4606 24.1582 35.7238 25.9053 33.5845 25.9053 ZM 33.5845 19.9102 C 32.4323 19.9102 31.4918 20.8545 31.4918 22.0146 C 31.4918 23.1768 32.4323 24.1221 33.5845 24.1221 C 34.741 24.1221 35.6814 23.1768 35.6814 22.0146 C 35.6814 20.8545 34.741 19.9102 33.5845 19.9102 ZM 24.4978 25.9053 C 22.3628 25.9053 20.6217 24.1582 20.6217 22.0146 C 20.6217 19.873 22.3628 18.125 24.4978 18.125 C 26.6329 18.125 28.374 19.873 28.374 22.0146 C 28.374 24.1582 26.6329 25.9053 24.4978 25.9053 ZM 24.4978 19.9102 C 23.3414 19.9102 22.401 20.8545 22.401 22.0146 C 22.401 23.1768 23.3414 24.1221 24.4978 24.1221 C 25.6543 24.1221 26.5947 23.1768 26.5947 22.0146 C 26.5947 20.8545 25.6543 19.9102 24.4978 19.9102 ZM 15.4111 25.9053 C 13.272 25.9053 11.5352 24.1582 11.5352 22.0146 C 11.5352 19.873 13.272 18.125 15.4111 18.125 C 17.542 18.125 19.2789 19.873 19.2789 22.0146 C 19.2789 24.1582 17.542 25.9053 15.4111 25.9053 ZM 15.4111 19.9102 C 14.2548 19.9102 13.3101 20.8545 13.3101 22.0146 C 13.3101 23.1768 14.2548 24.1221 15.4111 24.1221 C 16.5636 24.1221 17.5039 23.1768 17.5039 22.0146 C 17.5039 20.8545 16.5636 19.9102 15.4111 19.9102 Z" fill="#ffffff"/>
</svg>