<?xml version="1.0" standalone="no"?>
<!-- Generator: Adobe Fireworks 10, Export SVG Extension by Aaron Beall (http://fireworks.abeall.com) . Version: 0.6.1  -->
<!DOCTYPE svg PUBLIC "-//W3C//DTD SVG 1.1//EN" "http://www.w3.org/Graphics/SVG/1.1/DTD/svg11.dtd">
<svg id="Untitled-Page%201" viewBox="0 0 25 28" style="background-color:#ffffff00" version="1.1"
	xmlns="http://www.w3.org/2000/svg" xmlns:xlink="http://www.w3.org/1999/xlink" xml:space="preserve"
	x="0px" y="0px" width="25px" height="28px"
>
	<path id="like" d="M 5.5107 27.2297 L 1.1028 27.2297 C 0.7844 27.2297 0.527 26.9805 0.527 26.6719 L 0.527 10.5652 C 0.527 10.2583 0.7844 10.0078 1.1028 10.0078 L 5.5107 10.0078 C 5.8289 10.0078 6.0863 10.2583 6.0863 10.5652 L 6.0863 26.6719 C 6.0863 26.9805 5.8289 27.2297 5.5107 27.2297 ZM 1.6262 26.1147 L 4.9697 26.1147 L 4.9697 11.1226 L 1.6262 11.1226 L 1.6262 26.1147 ZM 14.9033 26.1174 C 14.9026 26.1174 14.9026 26.1174 14.9026 26.1174 C 14.5341 26.1174 14.1519 26.1099 13.7581 26.0933 C 12.2468 26.0295 10.4817 25.7839 9.193 25.6055 C 8.5647 25.5183 8.0219 25.4429 7.6946 25.4146 C 7.4066 25.3901 7.1855 25.1511 7.1855 24.8647 L 7.1855 11.7065 C 7.1855 11.4771 7.3293 11.2717 7.5464 11.1904 L 7.8156 11.0908 C 9.077 10.626 11.7023 9.6582 13.0471 8.2175 C 14.4666 6.6973 15.1754 4.6724 15.1548 2.2017 C 15.1852 1.4229 15.6372 0 17.1311 0 C 17.4327 0 17.7622 0.0627 18.1101 0.1855 C 18.188 0.2129 18.2588 0.2576 18.3175 0.3154 C 18.9403 0.9326 20.9155 4.5225 19.0514 10.0308 L 22.2234 10.0308 C 22.2239 10.0308 22.2245 10.0308 22.2251 10.0308 C 22.4438 10.0308 24.1099 10.0967 24.8102 12.1882 C 24.924 12.4482 25.3535 13.645 24.3566 15.0505 C 24.6555 15.5762 25.0568 16.5923 24.5798 17.7231 C 24.5347 17.8525 24.2897 18.489 23.8312 18.9272 C 24.092 19.8828 24.0793 21.4336 22.7107 22.5483 C 22.6536 23.1968 22.377 24.7671 21.0408 25.3174 C 20.9053 25.3633 18.5707 26.1174 14.9033 26.1174 ZM 8.3005 24.3713 C 8.594 24.408 8.9458 24.4565 9.3475 24.5129 C 10.614 24.6877 12.3486 24.9282 13.8062 24.991 C 17.9156 25.1667 20.6265 24.2925 20.6509 24.2842 C 21.5831 23.8987 21.6104 22.2817 21.6104 22.2642 C 21.6104 22.0864 21.6975 21.9197 21.844 21.8159 C 23.4124 20.7051 22.6934 19.0181 22.6617 18.9463 C 22.5436 18.6772 22.6584 18.3638 22.9241 18.2329 C 23.1643 18.1138 23.4332 17.6221 23.5399 17.3269 C 23.9712 16.3018 23.2693 15.4058 23.2394 15.3674 C 23.0743 15.1616 23.0778 14.8672 23.2491 14.6667 C 24.2053 13.5496 23.8062 12.6672 23.7888 12.6304 C 23.7789 12.6091 23.7664 12.5803 23.7593 12.5588 C 23.3058 11.1733 22.3525 11.1333 22.2451 11.1333 L 18.2576 11.1333 C 18.0735 11.1333 17.9016 11.0452 17.7976 10.8945 C 17.6936 10.7444 17.6713 10.5532 17.7377 10.3833 C 19.7114 5.3325 18.1384 1.9019 17.5988 1.1807 C 17.4255 1.1299 17.2688 1.1042 17.1311 1.1042 C 16.3481 1.1042 16.2751 2.1077 16.2693 2.2212 C 16.2927 4.9529 15.4841 7.2314 13.866 8.9668 C 12.3765 10.563 9.6765 11.582 8.3005 12.0894 L 8.3005 24.3713 ZM 3.2986 25.0024 C 2.9908 25.0024 2.7407 24.7524 2.7407 24.4451 C 2.7407 24.1382 2.9908 23.8877 3.2986 23.8877 C 3.6062 23.8877 3.8567 24.1382 3.8567 24.4451 C 3.8567 24.7524 3.6062 25.0024 3.2986 25.0024 Z" fill="#ffffff"/>
</svg>