<?xml version="1.0" standalone="no"?>
<!-- Generator: Adobe Fireworks 10, Export SVG Extension by Aaron Beall (http://fireworks.abeall.com) . Version: 0.6.1  -->
<!DOCTYPE svg PUBLIC "-//W3C//DTD SVG 1.1//EN" "http://www.w3.org/Graphics/SVG/1.1/DTD/svg11.dtd">
<svg id="p-logo1-Page%201" viewBox="0 0 96 32" style="background-color:#ffffff00" version="1.1"
	xmlns="http://www.w3.org/2000/svg" xmlns:xlink="http://www.w3.org/1999/xlink" xml:space="preserve"
	x="0px" y="0px" width="96px" height="32px"
>
	<g>
		<path d="M 18.4375 14.1094 C 17.6563 13.0938 16.5938 12.3906 15.2656 11.9844 C 16.375 11.4844 17.2188 10.75 17.7813 9.75 C 18.3438 8.7656 18.625 7.7031 18.625 6.5781 C 18.625 5.8281 18.4844 5.1094 18.2344 4.3906 C 17.9844 3.6719 17.625 3.0313 17.1719 2.4688 C 16.7031 1.9063 16.1406 1.4531 15.4844 1.0938 C 14.8281 0.75 14.0938 0.5625 13.2813 0.5625 L 0.25 0.5625 L 0.25 24 L 11.6563 24 C 12.7344 24 13.7656 23.875 14.7344 23.625 C 15.7031 23.375 16.5469 23 17.2656 22.5 C 17.9844 22 18.5625 21.3906 18.9844 20.6406 C 19.3906 19.8906 19.6094 19.0156 19.6094 18 C 19.6094 16.4219 19.2188 15.125 18.4375 14.1094 L 18.4375 14.1094 ZM 13.4063 18.7188 C 12.9375 19.1875 12.3594 19.4063 11.6563 19.4063 L 5.6563 19.4063 L 5.6563 14.2969 L 11.8906 14.2969 C 12.5156 14.2969 13.0469 14.5625 13.4688 15.0625 C 13.8906 15.5625 14.1094 16.1875 14.1094 16.9063 C 14.1094 17.6563 13.875 18.2656 13.4063 18.7188 L 13.4063 18.7188 ZM 11.1719 5.1875 C 11.7344 5.1875 12.2344 5.4063 12.6406 5.8125 C 13.0469 6.2344 13.25 6.8281 13.25 7.5938 C 13.25 8.4375 13.0156 9.0625 12.5469 9.4531 C 12.0781 9.8594 11.5625 10.0469 10.9688 10.0469 L 5.6563 10.0469 L 5.6563 5.1875 L 11.1719 5.1875 L 11.1719 5.1875 Z" fill="#ffffff"/>
		<path d="M 21.9631 31.125 C 22.4162 31.2969 22.8694 31.4219 23.3225 31.5156 C 23.7756 31.5781 24.2287 31.625 24.6662 31.625 C 26.2912 31.625 27.6975 31.1719 28.885 30.2969 C 30.0725 29.3906 30.9006 28.2344 31.3694 26.8125 L 37.9631 6.6719 L 33.01 6.6719 L 29.5412 19.4844 L 25.5256 6.6719 L 20.0725 6.6719 L 26.6819 24 C 26.385 25.1406 26.0569 25.9375 25.7131 26.375 C 25.3694 26.8125 24.8694 27.0313 24.2287 27.0313 C 23.9162 27.0313 23.5725 27 23.1975 26.9375 C 22.8069 26.875 22.4006 26.7656 21.9631 26.6094 L 21.9631 31.125 L 21.9631 31.125 Z" fill="#ffffff"/>
		<path d="M 51.02 23.6094 C 52.1763 23.125 53.145 22.4688 53.9419 21.6406 C 54.7231 20.8281 55.3325 19.875 55.7388 18.7813 C 56.145 17.6875 56.3638 16.5469 56.3638 15.3594 C 56.3638 14.1719 56.145 13.0469 55.7231 11.9531 C 55.3013 10.8594 54.6919 9.9063 53.9106 9.0781 C 53.1138 8.25 52.145 7.5938 51.0044 7.0938 C 49.8638 6.5938 48.5513 6.3438 47.0825 6.3438 C 45.6138 6.3438 44.3013 6.5938 43.145 7.0938 C 41.9888 7.5938 41.0044 8.25 40.2231 9.0781 C 39.4263 9.9063 38.8325 10.8594 38.4263 11.9531 C 38.02 13.0469 37.8169 14.1719 37.8169 15.3594 C 37.8169 16.5469 38.02 17.6875 38.4263 18.7813 C 38.8325 19.875 39.4263 20.8281 40.2231 21.6406 C 41.0044 22.4688 41.9888 23.125 43.145 23.6094 C 44.3013 24.0781 45.6138 24.3281 47.0825 24.3281 C 48.5513 24.3281 49.8638 24.0781 51.02 23.6094 L 51.02 23.6094 ZM 43.52 13.5313 C 43.7075 12.9688 43.9888 12.5 44.3325 12.0938 C 44.6763 11.7031 45.0825 11.3906 45.5513 11.1719 C 46.02 10.9531 46.52 10.8281 47.0825 10.8281 C 48.1763 10.8281 49.0981 11.25 49.8169 12.0781 C 50.5356 12.9063 50.9106 14 50.9106 15.3594 C 50.9106 16.0156 50.8013 16.625 50.6138 17.1875 C 50.4106 17.75 50.145 18.2344 49.8013 18.625 C 49.4575 19.0313 49.0669 19.3281 48.5981 19.5469 C 48.1294 19.7656 47.6294 19.875 47.0825 19.875 C 45.9575 19.875 45.02 19.4688 44.3013 18.6406 C 43.5825 17.8281 43.2231 16.7344 43.2231 15.3594 C 43.2231 14.7031 43.3169 14.0938 43.52 13.5313 L 43.52 13.5313 Z" fill="#ffffff"/>
		<path d="M 74.5456 12.9063 C 74.5456 12.1875 74.4831 11.4531 74.3581 10.6719 C 74.2331 9.9063 73.9987 9.2031 73.6237 8.5469 C 73.2487 7.8906 72.7175 7.3594 72.03 6.9531 C 71.3425 6.5469 70.4519 6.3438 69.3269 6.3438 C 67.7956 6.3438 66.4519 6.625 65.2956 7.1875 C 64.1394 7.75 63.2331 8.5469 62.5925 9.5781 L 62.5925 6.6719 L 57.8425 6.6719 L 57.8425 24 L 63.1237 24 L 63.1237 14.0625 C 63.28 13.625 63.4831 13.2188 63.7644 12.8438 C 64.0456 12.4688 64.3581 12.1563 64.7019 11.875 C 65.0456 11.5938 65.4206 11.3906 65.7956 11.2344 C 66.1706 11.0781 66.5456 11 66.9206 11 C 67.6237 11 68.1862 11.2656 68.6237 11.7813 C 69.0456 12.2969 69.2644 13.125 69.2644 14.2656 L 69.2644 24 L 74.5456 24 L 74.5456 12.9063 L 74.5456 12.9063 Z" fill="#ffffff"/>
		<path d="M 87.3994 23.5469 C 88.4306 23.0156 89.2588 22.2188 89.8838 21.125 L 89.9931 22.0156 C 90.0713 22.75 90.3994 23.3125 90.9775 23.6875 C 91.54 24.0625 92.29 24.2656 93.2275 24.2656 C 93.5244 24.2656 93.8525 24.25 94.2119 24.2188 C 94.5556 24.1875 94.9775 24.1094 95.4619 24 L 95.4619 19.5469 C 95.04 19.5156 94.7431 19.3906 94.5869 19.1719 C 94.4306 18.9688 94.3525 18.5938 94.3525 18.0625 L 94.3525 -0.0938 L 89.0713 -0.0938 L 89.0713 9.5156 C 88.54 8.5469 87.7744 7.7813 86.8056 7.2031 C 85.8213 6.6406 84.7275 6.3438 83.5244 6.3438 C 82.3994 6.3438 81.3681 6.5781 80.4306 7.0469 C 79.4931 7.5156 78.6963 8.1406 78.0088 8.9375 C 77.3213 9.75 76.8056 10.7031 76.4306 11.7969 C 76.0556 12.8906 75.8681 14.0781 75.8681 15.3281 C 75.8681 16.625 76.0713 17.8125 76.4775 18.9063 C 76.8838 20 77.4463 20.9531 78.165 21.7656 C 78.8838 22.5781 79.7588 23.2188 80.7588 23.6563 C 81.7588 24.0938 82.8681 24.3281 84.0556 24.3281 C 85.2431 24.3281 86.3525 24.0625 87.3994 23.5469 L 87.3994 23.5469 ZM 83.79 19.5469 C 83.2744 19.3281 82.8369 19.0313 82.4775 18.625 C 82.1025 18.2344 81.8213 17.7656 81.6181 17.2031 C 81.3994 16.6563 81.3056 16.0625 81.3056 15.4219 C 81.3056 14.8125 81.3994 14.2344 81.5869 13.6719 C 81.7744 13.125 82.04 12.6406 82.3994 12.2188 C 82.7431 11.8125 83.165 11.4688 83.6338 11.2188 C 84.1025 10.9688 84.6338 10.8281 85.1963 10.8281 C 85.9931 10.8281 86.7588 11.1094 87.4931 11.6719 C 88.2275 12.2344 88.7588 12.9688 89.1025 13.8438 L 89.1025 17.4688 C 88.7431 18.2188 88.2275 18.8125 87.5556 19.2344 C 86.8838 19.6719 86.1806 19.875 85.4619 19.875 C 84.8681 19.875 84.3056 19.7656 83.79 19.5469 L 83.79 19.5469 Z" fill="#ffffff"/>
	</g>
</svg>