<?xml version="1.0" standalone="no"?>
<!-- Generator: Adobe Fireworks 10, Export SVG Extension by Aaron Beall (http://fireworks.abeall.com) . Version: 0.6.1  -->
<!DOCTYPE svg PUBLIC "-//W3C//DTD SVG 1.1//EN" "http://www.w3.org/Graphics/SVG/1.1/DTD/svg11.dtd">
<svg id="Untitled-Page%201" viewBox="0 0 1504 380" style="background-color:#ffffff00" version="1.1"
	xmlns="http://www.w3.org/2000/svg" xmlns:xlink="http://www.w3.org/1999/xlink" xml:space="preserve"
	x="0px" y="0px" width="1504px" height="380px"
>
	<g>
		<g>
			<g>
				<path opacity="0.4392" d="M 2 378 L 234 288 L 421 310.5 L 608.25 255 L 795.5 313.25 L 982.5 221.5 L 1171 256 L 1502 2 L 1502 378 L 2 378 Z" stroke="#d7dcde" stroke-width="2" fill="#ffffff"/>
				<rect opacity="0.302" x="233" y="292" width="2" height="85" fill="#95a6af"/>
				<rect opacity="0.302" x="420" y="309" width="2" height="68" fill="#95a6af"/>
				<rect opacity="0.302" x="607" y="255" width="2" height="122" fill="#95a6af"/>
				<rect opacity="0.302" x="794" y="312" width="2" height="65" fill="#95a6af"/>
				<rect opacity="0.302" x="981" y="221" width="2" height="156" fill="#95a6af"/>
				<rect opacity="0.302" x="1170" y="258" width="2" height="119" fill="#95a6af"/>
				<path id="Ellipse" d="M 230.5 288 C 230.5 285.791 232.2908 284 234.5 284 C 236.7092 284 238.5 285.791 238.5 288 C 238.5 290.209 236.7092 292 234.5 292 C 232.2908 292 230.5 290.209 230.5 288 Z" fill="#aaaaaa"/>
				<path id="Ellipse2" d="M 417.5 310 C 417.5 307.791 419.2908 306 421.5 306 C 423.7092 306 425.5 307.791 425.5 310 C 425.5 312.209 423.7092 314 421.5 314 C 419.2908 314 417.5 312.209 417.5 310 Z" fill="#aaaaaa"/>
				<path id="Ellipse3" d="M 604.5 254 C 604.5 251.791 606.2908 250 608.5 250 C 610.7092 250 612.5 251.791 612.5 254 C 612.5 256.209 610.7092 258 608.5 258 C 606.2908 258 604.5 256.209 604.5 254 Z" fill="#aaaaaa"/>
				<path id="Ellipse4" d="M 791.5 313 C 791.5 310.791 793.2908 309 795.5 309 C 797.7092 309 799.5 310.791 799.5 313 C 799.5 315.209 797.7092 317 795.5 317 C 793.2908 317 791.5 315.209 791.5 313 Z" fill="#aaaaaa"/>
				<path id="Ellipse5" d="M 978.5 221 C 978.5 218.791 980.2908 217 982.5 217 C 984.7092 217 986.5 218.791 986.5 221 C 986.5 223.209 984.7092 225 982.5 225 C 980.2908 225 978.5 223.209 978.5 221 Z" fill="#aaaaaa"/>
				<path id="Ellipse6" d="M 1167.5 256 C 1167.5 253.791 1169.2908 252 1171.5 252 C 1173.7092 252 1175.5 253.791 1175.5 256 C 1175.5 258.209 1173.7092 260 1171.5 260 C 1169.2908 260 1167.5 258.209 1167.5 256 Z" fill="#aaaaaa"/>
			</g>
		</g>
	</g>
</svg>