<?xml version="1.0" standalone="no"?>
<!-- Generator: Adobe Fireworks 10, Export SVG Extension by Aaron Beall (http://fireworks.abeall.com) . Version: 0.6.1  -->
<!DOCTYPE svg PUBLIC "-//W3C//DTD SVG 1.1//EN" "http://www.w3.org/Graphics/SVG/1.1/DTD/svg11.dtd">
<svg id="Untitled-Page%201" viewBox="0 0 40 30" style="background-color:#ffffff00" version="1.1"
	xmlns="http://www.w3.org/2000/svg" xmlns:xlink="http://www.w3.org/1999/xlink" xml:space="preserve"
	x="0px" y="0px" width="40px" height="30px"
>
	<path d="M 31.5 15 C 31.5 8.5332 36.3201 8 39.5 8 C 39.4822 4.9956 39.5 0 39.5 0 C 39.5 0 39.0574 0.04 38.5 0 C 26.6451 0.04 23.5 11.4141 23.5 15 L 23.5 30 L 39.5 30 L 39.5 15 L 31.5 15 ZM 8.5 15 C 8.5 8.5332 13.3201 8 16.5 8 C 16.4822 4.9956 16.5 0 16.5 0 C 16.5 0 16.0574 0.04 15.5 0 C 3.6451 0.04 0.5 11.4141 0.5 15 L 0.5 30 L 16.5 30 L 16.5 15 L 8.5 15 Z" stroke="#ffffff00" stroke-width="1" fill="#00b66a"/>
</svg>