<?xml version="1.0" standalone="no"?>
<!-- Generator: Adobe Fireworks 10, Export SVG Extension by Aaron Beall (http://fireworks.abeall.com) . Version: 0.6.1  -->
<!DOCTYPE svg PUBLIC "-//W3C//DTD SVG 1.1//EN" "http://www.w3.org/Graphics/SVG/1.1/DTD/svg11.dtd">
<svg id="Untitled-Page%201" viewBox="0 0 143 46" style="background-color:#ffffff00" version="1.1"
	xmlns="http://www.w3.org/2000/svg" xmlns:xlink="http://www.w3.org/1999/xlink" xml:space="preserve"
	x="0px" y="0px" width="143px" height="46px"
>
	<g>
		<g>
			<path d="M 53.2896 37 L 46.1959 37 L 46.1959 38.5 L 48.9146 38.5 L 48.9146 46 L 50.5553 46 L 50.5553 38.5 L 53.2896 38.5 L 53.2896 37 L 53.2896 37 Z" fill="#ffffff"/>
			<path d="M 71.4183 37 L 71.4183 40.5 L 67.5589 40.5 L 67.5589 37 L 65.9026 37 L 65.9026 46 L 67.5589 46 L 67.5589 42 L 71.4183 42 L 71.4183 46 L 73.0589 46 L 73.0589 37 L 71.4183 37 L 71.4183 37 Z" fill="#ffffff"/>
			<path d="M 88.5469 44.5 L 88.5469 42 L 92.125 42 L 92.125 40.5 L 88.5469 40.5 L 88.5469 38.5 L 92.7031 38.5 L 92.7031 37 L 86.8906 37 L 86.8906 46 L 92.7969 46 L 92.7969 44.5 L 88.5469 44.5 L 88.5469 44.5 Z" fill="#ffffff"/>
			<path d="M 114.4724 46 L 114.4724 37 L 112.7224 37 L 110.1755 42.1406 L 107.6443 37 L 105.8786 37 L 105.8786 46 L 107.5349 46 L 107.5349 40.0938 L 109.7224 44.4844 L 110.6286 44.4844 L 112.8318 40.0938 L 112.8318 46 L 114.4724 46 L 114.4724 46 Z" fill="#ffffff"/>
			<path d="M 129.5229 44.5 L 129.5229 42 L 133.101 42 L 133.101 40.5 L 129.5229 40.5 L 129.5229 38.5 L 133.6791 38.5 L 133.6791 37 L 127.8666 37 L 127.8666 46 L 133.7729 46 L 133.7729 44.5 L 129.5229 44.5 L 129.5229 44.5 Z" fill="#ffffff"/>
		</g>
		<g>
			<path d="M 65.6451 33.3399 C 66.0766 33.503 66.5033 33.623 66.93 33.6949 C 67.3518 33.7621 67.7688 33.8004 68.1858 33.8004 C 69.718 33.8004 71.0417 33.3831 72.1569 32.558 C 73.2721 31.7281 74.0528 30.6487 74.4892 29.3199 L 80.6955 10.592 L 76.0408 10.592 L 72.7824 22.5033 L 68.9955 10.592 L 63.8753 10.592 L 70.0817 26.7103 C 69.8101 27.7753 69.5095 28.5092 69.1798 28.9218 C 68.8501 29.3295 68.3846 29.5358 67.7834 29.5358 C 67.4924 29.5358 67.1676 29.5022 66.8088 29.4447 C 66.4451 29.3775 66.0572 29.2768 65.6451 29.1377 L 65.6451 33.3399 L 65.6451 33.3399 Z" fill="#ffffff"/>
		</g>
		<g>
			<path d="M 62.933 17.8069 C 62.196 16.8666 61.1971 16.2142 59.9365 15.8401 C 60.9935 15.37 61.7838 14.6744 62.3123 13.7533 C 62.836 12.8323 63.1027 11.8537 63.1027 10.8079 C 63.1027 10.1123 62.9815 9.4311 62.7439 8.7643 C 62.5063 8.1023 62.1717 7.5075 61.7353 6.9846 C 61.2989 6.4665 60.7753 6.0396 60.1546 5.7134 C 59.534 5.3872 58.8406 5.2193 58.0745 5.2193 L 45.8169 5.2193 L 45.8169 27.0173 L 56.5569 27.0173 C 57.5654 27.0173 58.5255 26.9022 59.437 26.6671 C 60.3486 26.4321 61.1438 26.0819 61.8275 25.6214 C 62.5111 25.1609 63.0493 24.5852 63.4421 23.8896 C 63.8348 23.194 64.0336 22.3737 64.0336 21.4287 C 64.0336 19.956 63.6651 18.7471 62.933 17.8069 L 62.933 17.8069 ZM 58.1958 22.1051 C 57.7594 22.5368 57.2163 22.7479 56.5569 22.7479 L 50.9081 22.7479 L 50.9081 17.9892 L 56.7702 17.9892 C 57.3715 17.9892 57.866 18.229 58.2588 18.6991 C 58.6515 19.1693 58.8503 19.7449 58.8503 20.4165 C 58.8503 21.1169 58.6321 21.6781 58.1958 22.1051 L 58.1958 22.1051 ZM 56.0914 9.5175 C 56.6248 9.5175 57.0854 9.7142 57.4684 10.1027 C 57.8515 10.4913 58.0454 11.043 58.0454 11.7577 C 58.0454 12.5349 57.8273 13.1105 57.3909 13.4799 C 56.9545 13.8493 56.4599 14.0316 55.9023 14.0316 L 50.9081 14.0316 L 50.9081 9.5175 L 56.0914 9.5175 L 56.0914 9.5175 Z" fill="#ffffff"/>
		</g>
		<g>
			<path d="M 92.5027 26.3409 C 93.5888 25.89 94.5004 25.2808 95.2471 24.5132 C 95.9938 23.7457 96.5563 22.8582 96.9393 21.846 C 97.3175 20.8339 97.5115 19.7737 97.5115 18.6656 C 97.5115 17.5622 97.3127 16.5069 96.9199 15.4899 C 96.5272 14.4777 95.9599 13.5854 95.2132 12.8179 C 94.4665 12.0504 93.5597 11.4363 92.4833 10.9758 C 91.4069 10.5153 90.1802 10.285 88.7934 10.285 C 87.4067 10.285 86.1702 10.5153 85.0841 10.9758 C 83.998 11.4363 83.0816 12.0504 82.3349 12.8179 C 81.5882 13.5854 81.0257 14.4777 80.6475 15.4899 C 80.2645 16.5069 80.0754 17.5622 80.0754 18.6656 C 80.0754 19.7737 80.2645 20.8339 80.6475 21.846 C 81.0257 22.8582 81.5882 23.7457 82.3349 24.5132 C 83.0816 25.2808 83.998 25.89 85.0841 26.3409 C 86.1702 26.7919 87.4067 27.0173 88.7934 27.0173 C 90.1802 27.0173 91.4166 26.7919 92.5027 26.3409 L 92.5027 26.3409 ZM 85.4381 16.9626 C 85.6223 16.4445 85.8793 15.9984 86.1993 15.629 C 86.5194 15.2596 86.9024 14.9718 87.3485 14.7655 C 87.7946 14.564 88.2746 14.4585 88.7934 14.4585 C 89.8262 14.4585 90.6844 14.8423 91.3681 15.6098 C 92.0469 16.3773 92.3912 17.3991 92.3912 18.6656 C 92.3912 19.2796 92.2942 19.8505 92.11 20.3733 C 91.9257 20.8962 91.6736 21.3424 91.3536 21.7069 C 91.0335 22.0763 90.6553 22.3641 90.2189 22.5656 C 89.7826 22.7719 89.3074 22.8726 88.7934 22.8726 C 87.7364 22.8726 86.8685 22.4889 86.1848 21.7213 C 85.5011 20.9538 85.1617 19.9368 85.1617 18.6656 C 85.1617 18.0515 85.2538 17.4855 85.4381 16.9626 L 85.4381 16.9626 Z" fill="#ffffff"/>
		</g>
		<g>
			<path d="M 114.7344 16.3965 C 114.7344 15.7201 114.6762 15.0246 114.5647 14.305 C 114.4483 13.5902 114.2156 12.933 113.8665 12.3286 C 113.5125 11.7241 113.0179 11.2348 112.3779 10.8559 C 111.7379 10.4769 110.8893 10.285 109.8323 10.285 C 108.4068 10.285 107.1412 10.5489 106.0454 11.0669 C 104.9496 11.5898 104.1011 12.3334 103.5047 13.2928 L 103.5047 10.592 L 99.0341 10.592 L 99.0341 26.7103 L 103.9992 26.7103 L 103.9992 17.4711 C 104.1447 17.0633 104.3435 16.6844 104.6053 16.3342 C 104.8623 15.9888 105.1581 15.6866 105.4878 15.4275 C 105.8175 15.1733 106.1618 14.9718 106.5109 14.8279 C 106.86 14.684 107.214 14.612 107.5679 14.612 C 108.2274 14.612 108.7607 14.8567 109.1632 15.3364 C 109.5656 15.8161 109.7693 16.5884 109.7693 17.6534 L 109.7693 26.7103 L 114.7344 26.7103 L 114.7344 16.3965 L 114.7344 16.3965 Z" fill="#ffffff"/>
		</g>
		<g>
			<path d="M 126.948 26.5905 C 127.9275 26.101 128.7081 25.3527 129.29 24.3454 L 129.2811 27.0239 L 133.2857 27.0208 L 133.2857 4.6513 L 128.5142 4.6052 L 128.5142 13.5375 C 128.0147 12.6404 127.3068 11.9256 126.3856 11.3932 C 125.4644 10.8607 124.4363 10.5919 123.3018 10.5919 C 122.2448 10.5919 121.275 10.808 120.3974 11.2397 C 119.5149 11.6715 118.7585 12.2567 118.1185 13.005 C 117.4784 13.7532 116.979 14.6361 116.6299 15.6578 C 116.276 16.6843 116.1013 17.778 116.1013 18.9438 C 116.1013 20.1527 116.2905 21.2608 116.6735 22.2729 C 117.0566 23.2899 117.5899 24.1728 118.2737 24.9305 C 118.9525 25.6887 119.767 26.2786 120.7077 26.6959 C 121.6484 27.1133 122.6811 27.3243 123.7964 27.3243 C 124.9116 27.3243 125.9637 27.0748 126.948 26.5905 L 126.948 26.5905 ZM 123.5636 22.8726 C 123.0787 22.6712 122.6618 22.3834 122.3223 22.014 C 121.9829 21.6493 121.7114 21.208 121.5174 20.6949 C 121.3186 20.1863 121.2217 19.6298 121.2217 19.0349 C 121.2217 18.4642 121.3089 17.9221 121.4835 17.4088 C 121.6581 16.9003 121.915 16.4493 122.2448 16.0607 C 122.5744 15.6722 122.9623 15.3603 123.4084 15.1204 C 123.8546 14.8854 124.3443 14.7655 124.8824 14.7655 C 125.6292 14.7655 126.3468 15.0295 127.0402 15.5522 C 127.7286 16.0751 128.233 16.7468 128.5432 17.5623 L 128.5432 20.9395 C 128.2135 21.6349 127.7335 22.1818 127.1032 22.5801 C 126.4728 22.9829 125.8134 23.1797 125.1298 23.1797 C 124.5721 23.1797 124.0485 23.079 123.5636 22.8726 L 123.5636 22.8726 Z" fill="#ffffff"/>
		</g>
		<g>
			<path d="M 136.1766 23.1137 C 136.1766 21.2585 137.7041 19.7546 139.5884 19.7546 L 139.5884 19.7546 C 141.4726 19.7546 143 21.2585 143 23.1137 L 143 23.1137 C 143 24.969 141.4726 26.4729 139.5884 26.4729 L 139.5884 26.4729 C 137.7041 26.4729 136.1766 24.969 136.1766 23.1137 L 136.1766 23.1137 Z" fill="#ffffff"/>
		</g>
		<path d="M 0 6.5598 L 0.0094 23.8813 L 0.0559 23.7702 C 0.0559 23.7702 -0.3741 30.0039 3.7216 33.1961 C 7.8207 36.3908 12.9243 35.1164 15.4688 31.1469 C 16.4705 29.5841 17.0417 26.916 17.3667 24.508 C 17.3277 22.5737 17.2506 21.262 17.2506 21.262 C 17.2506 21.262 13.9532 21.8945 12.8544 22.3544 C 11.7454 22.8189 9.9584 23.0436 11.1161 21.4343 C 15.0376 15.9837 16.2822 8.6706 16.8565 7.4101 C 17.1703 6.7217 17.1958 6.6303 17.6291 6.6303 C 18.0623 6.6303 18.1982 6.722 18.5157 7.4101 C 19.0972 8.6706 20.4087 15.8934 24.469 21.4343 C 25.6439 23.0375 23.8477 22.8189 22.736 22.3544 C 21.6346 21.8945 18.1023 21.262 18.1023 21.262 C 18.1023 21.262 18.1046 22.1983 18.1238 23.6203 C 18.4382 26.2321 19.0383 29.3888 20.1753 31.1469 C 22.7426 35.1164 27.8536 36.3908 31.9344 33.1961 C 36.0117 30.0039 35.5459 23.7702 35.5459 23.7702 L 35.5939 23.8813 L 35.503 6.5598 C 35.4828 2.7072 32.7229 0.0003 28.8177 0.0003 L 6.6476 0.0003 C 2.7424 0.0003 -0.002 2.7072 0 6.5598 Z" fill="#ffffff"/>
	</g>
</svg>