<?xml version="1.0" standalone="no"?><!DOCTYPE svg PUBLIC "-//W3C//DTD SVG 1.1//EN" "http://www.w3.org/Graphics/SVG/1.1/DTD/svg11.dtd"><svg xmlns:xlink="http://www.w3.org/1999/xlink" version="1.1" style="font-family:dosis, sans-serif;font-size:12px;" xmlns="http://www.w3.org/2000/svg" width="600" height="400"><desc>Created with Highcharts 4.2.7</desc><defs><linearGradient x1="0" y1="0" x2="1" y2="1" id="highcharts-217"><stop offset="0" stop-color="rgb(255, 255, 255)" stop-opacity="1"></stop><stop offset="1" stop-color="rgb(240, 240, 255)" stop-opacity="1"></stop></linearGradient><clipPath id="highcharts-218"><rect x="0" y="0" width="523" height="265"></rect></clipPath></defs><rect x="1" y="1" width="598" height="398" fill="url(#highcharts-217)" stroke="#4572a7" stroke-width="2" class=" highcharts-background"></rect><rect x="67" y="44" width="523" height="265" fill="none"  stroke="black" stroke-opacity="0.049999999999999996" stroke-width="5" transform="translate(1, 1)"></rect><rect x="67" y="44" width="523" height="265" fill="none"  stroke="black" stroke-opacity="0.09999999999999999" stroke-width="3" transform="translate(1, 1)"></rect><rect x="67" y="44" width="523" height="265" fill="none"  stroke="black" stroke-opacity="0.15" stroke-width="1" transform="translate(1, 1)"></rect><rect x="67" y="44" width="523" height="265" fill="rgb(255, 255, 255)" fill-opacity=" .9"></rect><g class="highcharts-grid"><path fill="none" d="M 66.5 44 L 66.5 309" stroke="#C0C0C0" stroke-width="1" opacity="1"></path><path fill="none" d="M 124.5 44 L 124.5 309" stroke="#C0C0C0" stroke-width="1" opacity="1"></path><path fill="none" d="M 182.5 44 L 182.5 309" stroke="#C0C0C0" stroke-width="1" opacity="1"></path><path fill="none" d="M 240.5 44 L 240.5 309" stroke="#C0C0C0" stroke-width="1" opacity="1"></path><path fill="none" d="M 298.5 44 L 298.5 309" stroke="#C0C0C0" stroke-width="1" opacity="1"></path><path fill="none" d="M 357.5 44 L 357.5 309" stroke="#C0C0C0" stroke-width="1" opacity="1"></path><path fill="none" d="M 415.5 44 L 415.5 309" stroke="#C0C0C0" stroke-width="1" opacity="1"></path><path fill="none" d="M 473.5 44 L 473.5 309" stroke="#C0C0C0" stroke-width="1" opacity="1"></path><path fill="none" d="M 531.5 44 L 531.5 309" stroke="#C0C0C0" stroke-width="1" opacity="1"></path><path fill="none" d="M 590.5 44 L 590.5 309" stroke="#C0C0C0" stroke-width="1" opacity="1"></path></g><g class="highcharts-grid"><path fill="none" d="M 67 309.5 L 590 309.5" stroke="#E0E0E0" stroke-width="1" opacity="1"></path><path fill="none" d="M 67 300.5 L 590 300.5" stroke="#E0E0E0" stroke-width="1" opacity="1"></path><path fill="none" d="M 67 291.5 L 590 291.5" stroke="#E0E0E0" stroke-width="1" opacity="1"></path><path fill="none" d="M 67 283.5 L 590 283.5" stroke="#E0E0E0" stroke-width="1" opacity="1"></path><path fill="none" d="M 67 274.5 L 590 274.5" stroke="#E0E0E0" stroke-width="1" opacity="1"></path><path fill="none" d="M 67 265.5 L 590 265.5" stroke="#E0E0E0" stroke-width="1" opacity="1"></path><path fill="none" d="M 67 256.5 L 590 256.5" stroke="#E0E0E0" stroke-width="1" opacity="1"></path><path fill="none" d="M 67 247.5 L 590 247.5" stroke="#E0E0E0" stroke-width="1" opacity="1"></path><path fill="none" d="M 67 238.5 L 590 238.5" stroke="#E0E0E0" stroke-width="1" opacity="1"></path><path fill="none" d="M 67 230.5 L 590 230.5" stroke="#E0E0E0" stroke-width="1" opacity="1"></path><path fill="none" d="M 67 221.5 L 590 221.5" stroke="#E0E0E0" stroke-width="1" opacity="1"></path><path fill="none" d="M 67 212.5 L 590 212.5" stroke="#E0E0E0" stroke-width="1" opacity="1"></path><path fill="none" d="M 67 203.5 L 590 203.5" stroke="#E0E0E0" stroke-width="1" opacity="1"></path><path fill="none" d="M 67 194.5 L 590 194.5" stroke="#E0E0E0" stroke-width="1" opacity="1"></path><path fill="none" d="M 67 185.5 L 590 185.5" stroke="#E0E0E0" stroke-width="1" opacity="1"></path><path fill="none" d="M 67 177.5 L 590 177.5" stroke="#E0E0E0" stroke-width="1" opacity="1"></path><path fill="none" d="M 67 168.5 L 590 168.5" stroke="#E0E0E0" stroke-width="1" opacity="1"></path><path fill="none" d="M 67 159.5 L 590 159.5" stroke="#E0E0E0" stroke-width="1" opacity="1"></path><path fill="none" d="M 67 150.5 L 590 150.5" stroke="#E0E0E0" stroke-width="1" opacity="1"></path><path fill="none" d="M 67 141.5 L 590 141.5" stroke="#E0E0E0" stroke-width="1" opacity="1"></path><path fill="none" d="M 67 132.5 L 590 132.5" stroke="#E0E0E0" stroke-width="1" opacity="1"></path><path fill="none" d="M 67 124.5 L 590 124.5" stroke="#E0E0E0" stroke-width="1" opacity="1"></path><path fill="none" d="M 67 115.5 L 590 115.5" stroke="#E0E0E0" stroke-width="1" opacity="1"></path><path fill="none" d="M 67 106.5 L 590 106.5" stroke="#E0E0E0" stroke-width="1" opacity="1"></path><path fill="none" d="M 67 97.5 L 590 97.5" stroke="#E0E0E0" stroke-width="1" opacity="1"></path><path fill="none" d="M 67 88.5 L 590 88.5" stroke="#E0E0E0" stroke-width="1" opacity="1"></path><path fill="none" d="M 67 79.5 L 590 79.5" stroke="#E0E0E0" stroke-width="1" opacity="1"></path><path fill="none" d="M 67 70.5 L 590 70.5" stroke="#E0E0E0" stroke-width="1" opacity="1"></path><path fill="none" d="M 67 62.5 L 590 62.5" stroke="#E0E0E0" stroke-width="1" opacity="1"></path><path fill="none" d="M 67 53.5 L 590 53.5" stroke="#E0E0E0" stroke-width="1" opacity="1"></path><path fill="none" d="M 67 43.5 L 590 43.5" stroke="#E0E0E0" stroke-width="1" opacity="1"></path><path fill="none" d="M 67 309.5 L 590 309.5" stroke="#C0C0C0" stroke-width="1" opacity="1"></path><path fill="none" d="M 67 265.5 L 590 265.5" stroke="#C0C0C0" stroke-width="1" opacity="1"></path><path fill="none" d="M 67 221.5 L 590 221.5" stroke="#C0C0C0" stroke-width="1" opacity="1"></path><path fill="none" d="M 67 177.5 L 590 177.5" stroke="#C0C0C0" stroke-width="1" opacity="1"></path><path fill="none" d="M 67 132.5 L 590 132.5" stroke="#C0C0C0" stroke-width="1" opacity="1"></path><path fill="none" d="M 67 88.5 L 590 88.5" stroke="#C0C0C0" stroke-width="1" opacity="1"></path><path fill="none" d="M 67 43.5 L 590 43.5" stroke="#C0C0C0" stroke-width="1" opacity="1"></path></g><rect x="66.5" y="43.5" width="524" height="266" fill="none"></rect><g class="highcharts-axis"><path fill="none" d="M 66.5 309 L 66.5 319" stroke="#000" stroke-width="1" opacity="1"></path><path fill="none" d="M 124.5 309 L 124.5 319" stroke="#000" stroke-width="1" opacity="1"></path><path fill="none" d="M 182.5 309 L 182.5 319" stroke="#000" stroke-width="1" opacity="1"></path><path fill="none" d="M 240.5 309 L 240.5 319" stroke="#000" stroke-width="1" opacity="1"></path><path fill="none" d="M 298.5 309 L 298.5 319" stroke="#000" stroke-width="1" opacity="1"></path><path fill="none" d="M 357.5 309 L 357.5 319" stroke="#000" stroke-width="1" opacity="1"></path><path fill="none" d="M 415.5 309 L 415.5 319" stroke="#000" stroke-width="1" opacity="1"></path><path fill="none" d="M 473.5 309 L 473.5 319" stroke="#000" stroke-width="1" opacity="1"></path><path fill="none" d="M 531.5 309 L 531.5 319" stroke="#000" stroke-width="1" opacity="1"></path><path fill="none" d="M 590.5 309 L 590.5 319" stroke="#000" stroke-width="1" opacity="1"></path><text x="328.5" text-anchor="middle" transform="translate(0,0)" class=" highcharts-xaxis-title" style="color:#333;font-size:12px;font-family:trebuchet ms, verdana, sans-serif;text-transform:none;font-weight:bold;fill:#333;" y="346.71875">Epoch</text><path fill="none" d="M 67 309.5 L 590 309.5" stroke="#000" stroke-width="1"></path></g><g class="highcharts-axis"><path fill="none" d="M 67 309.5 L 57 309.5" stroke="#000" stroke-width="1" opacity="1"></path><path fill="none" d="M 67 265.5 L 57 265.5" stroke="#000" stroke-width="1" opacity="1"></path><path fill="none" d="M 67 221.5 L 57 221.5" stroke="#000" stroke-width="1" opacity="1"></path><path fill="none" d="M 67 177.5 L 57 177.5" stroke="#000" stroke-width="1" opacity="1"></path><path fill="none" d="M 67 132.5 L 57 132.5" stroke="#000" stroke-width="1" opacity="1"></path><path fill="none" d="M 67 88.5 L 57 88.5" stroke="#000" stroke-width="1" opacity="1"></path><path fill="none" d="M 67 43.5 L 57 43.5" stroke="#000" stroke-width="1" opacity="1"></path><text x="24.109375" text-anchor="middle" transform="translate(0,0) rotate(270 24.109375 176.5)" class=" highcharts-yaxis-title" style="color:#333;font-size:12px;font-family:trebuchet ms, verdana, sans-serif;text-transform:none;font-weight:bold;fill:#333;" y="176.5"><tspan>Training Accuracy (percent)</tspan></text><path fill="none" d="M 66.5 44 L 66.5 309" stroke="#000" stroke-width="1"></path></g><g class="highcharts-series-group"><g class="highcharts-series highcharts-series-0" transform="translate(67,44) scale(1 1)" clip-path="url(#highcharts-218)"></g><g class="highcharts-markers highcharts-series-0" transform="translate(67,44) scale(1 1)" clip-path="none"><path fill="#50B432" d="M 464 44.671666666666624 C 469.328 44.671666666666624 469.328 52.671666666666624 464 52.671666666666624 C 458.672 52.671666666666624 458.672 44.671666666666624 464 44.671666666666624 Z"></path><path fill="#50B432" d="M 441 44.6275 C 446.328 44.6275 446.328 52.6275 441 52.6275 C 435.672 52.6275 435.672 44.6275 441 44.6275 Z"></path><path fill="#50B432" d="M 418 45.06916666666666 C 423.328 45.06916666666666 423.328 53.06916666666666 418 53.06916666666666 C 412.672 53.06916666666666 412.672 45.06916666666666 418 45.06916666666666 Z"></path><path fill="#50B432" d="M 395 46.26166666666663 C 400.328 46.26166666666663 400.328 54.26166666666663 395 54.26166666666663 C 389.672 54.26166666666663 389.672 46.26166666666663 395 46.26166666666663 Z"></path><path fill="#50B432" d="M 371 46.08500000000001 C 376.328 46.08500000000001 376.328 54.08500000000001 371 54.08500000000001 C 365.672 54.08500000000001 365.672 46.08500000000001 371 46.08500000000001 Z"></path><path fill="#50B432" d="M 348 46.747499999999974 C 353.328 46.747499999999974 353.328 54.747499999999974 348 54.747499999999974 C 342.672 54.747499999999974 342.672 46.747499999999974 348 46.747499999999974 Z"></path><path fill="#50B432" d="M 325 47.23333333333329 C 330.328 47.23333333333329 330.328 55.23333333333329 325 55.23333333333329 C 319.672 55.23333333333329 319.672 47.23333333333329 325 47.23333333333329 Z"></path><path fill="#50B432" d="M 302 47.41 C 307.328 47.41 307.328 55.41 302 55.41 C 296.672 55.41 296.672 47.41 302 47.41 Z"></path><path fill="#50B432" d="M 278 47.984166666666624 C 283.328 47.984166666666624 283.328 55.984166666666624 278 55.984166666666624 C 272.672 55.984166666666624 272.672 47.984166666666624 278 47.984166666666624 Z"></path><path fill="#50B432" d="M 255 50.23666666666665 C 260.328 50.23666666666665 260.328 58.23666666666665 255 58.23666666666665 C 249.672 58.23666666666665 249.672 50.23666666666665 255 50.23666666666665 Z"></path><path fill="#50B432" d="M 232 51.340833333333336 C 237.328 51.340833333333336 237.328 59.340833333333336 232 59.340833333333336 C 226.672 59.340833333333336 226.672 51.340833333333336 232 51.340833333333336 Z"></path><path fill="#50B432" d="M 209 52.48916666666668 C 214.328 52.48916666666668 214.328 60.48916666666668 209 60.48916666666668 C 203.672 60.48916666666668 203.672 52.48916666666668 209 52.48916666666668 Z"></path><path fill="#50B432" d="M 185 55.00666666666666 C 190.328 55.00666666666666 190.328 63.00666666666666 185 63.00666666666666 C 179.672 63.00666666666666 179.672 55.00666666666666 185 55.00666666666666 Z"></path><path fill="#50B432" d="M 162 58.40749999999997 C 167.328 58.40749999999997 167.328 66.40749999999997 162 66.40749999999997 C 156.672 66.40749999999997 156.672 58.40749999999997 162 58.40749999999997 Z"></path><path fill="#50B432" d="M 139 59.51166666666663 C 144.328 59.51166666666663 144.328 67.51166666666663 139 67.51166666666663 C 133.672 67.51166666666663 133.672 59.51166666666663 139 59.51166666666663 Z"></path><path fill="#50B432" d="M 116 66.84333333333336 C 121.328 66.84333333333336 121.328 74.84333333333336 116 74.84333333333336 C 110.672 74.84333333333336 110.672 66.84333333333336 116 66.84333333333336 Z"></path><path fill="#50B432" d="M 92 78.19416666666666 C 97.328 78.19416666666666 97.328 86.19416666666666 92 86.19416666666666 C 86.672 86.19416666666666 86.672 78.19416666666666 92 78.19416666666666 Z"></path><path fill="#50B432" d="M 69 98.24583333333334 C 74.328 98.24583333333334 74.328 106.24583333333334 69 106.24583333333334 C 63.672 106.24583333333334 63.672 98.24583333333334 69 98.24583333333334 Z"></path><path fill="#50B432" d="M 46 137.245 C 51.328 137.245 51.328 145.245 46 145.245 C 40.672 145.245 40.672 137.245 46 137.245 Z"></path><path fill="#50B432" d="M 23 236.44333333333333 C 28.328 236.44333333333333 28.328 244.44333333333333 23 244.44333333333333 C 17.672 244.44333333333333 17.672 236.44333333333333 23 236.44333333333333 Z"></path></g></g><text x="300" text-anchor="middle" class="highcharts-title" style="color:#000;font-size:16px;font-family:'trebuchet ms', verdana, sans-serif;text-transform:none;font-weight:bold;fill:#000;width:536px;" y="22"><tspan>Validation</tspan></text><g class="highcharts-legend" transform="translate(261,360)"><g><g><g class="highcharts-legend-item" transform="translate(8,3)"><path fill="#50B432" d="M 8 7 C 13.328 7 13.328 15 8 15 C 2.6719999999999997 15 2.6719999999999997 7 8 7 Z"></path><text x="21" style="color:black;font-size:9pt;font-weight:normal;cursor:pointer;font-family:trebuchet ms, verdana, sans-serif;text-transform:none;fill:black;" text-anchor="start" y="15"><tspan>Series 1</tspan></text></g></g></g></g><g class="highcharts-axis-labels highcharts-xaxis-labels"><text x="67" style="color:#000;cursor:default;font-size:11px;font-family:trebuchet ms, verdana, sans-serif;text-transform:none;font-weight:normal;fill:#000;" text-anchor="middle" transform="translate(0,0)" y="328" opacity="1">0</text><text x="125.11111111111111" style="color:#000;cursor:default;font-size:11px;font-family:trebuchet ms, verdana, sans-serif;text-transform:none;font-weight:normal;fill:#000;" text-anchor="middle" transform="translate(0,0)" y="328" opacity="1">2.5</text><text x="183.22222222222223" style="color:#000;cursor:default;font-size:11px;font-family:trebuchet ms, verdana, sans-serif;text-transform:none;font-weight:normal;fill:#000;" text-anchor="middle" transform="translate(0,0)" y="328" opacity="1">5</text><text x="241.33333333333331" style="color:#000;cursor:default;font-size:11px;font-family:trebuchet ms, verdana, sans-serif;text-transform:none;font-weight:normal;fill:#000;" text-anchor="middle" transform="translate(0,0)" y="328" opacity="1">7.5</text><text x="299.44444444444446" style="color:#000;cursor:default;font-size:11px;font-family:trebuchet ms, verdana, sans-serif;text-transform:none;font-weight:normal;fill:#000;" text-anchor="middle" transform="translate(0,0)" y="328" opacity="1">10</text><text x="357.55555555555554" style="color:#000;cursor:default;font-size:11px;font-family:trebuchet ms, verdana, sans-serif;text-transform:none;font-weight:normal;fill:#000;" text-anchor="middle" transform="translate(0,0)" y="328" opacity="1">12.5</text><text x="415.66666666666663" style="color:#000;cursor:default;font-size:11px;font-family:trebuchet ms, verdana, sans-serif;text-transform:none;font-weight:normal;fill:#000;" text-anchor="middle" transform="translate(0,0)" y="328" opacity="1">15</text><text x="473.77777777777777" style="color:#000;cursor:default;font-size:11px;font-family:trebuchet ms, verdana, sans-serif;text-transform:none;font-weight:normal;fill:#000;" text-anchor="middle" transform="translate(0,0)" y="328" opacity="1">17.5</text><text x="531.8888888888889" style="color:#000;cursor:default;font-size:11px;font-family:trebuchet ms, verdana, sans-serif;text-transform:none;font-weight:normal;fill:#000;" text-anchor="middle" transform="translate(0,0)" y="328" opacity="1">20</text><text x="579.328125" style="color:#000;cursor:default;font-size:11px;font-family:trebuchet ms, verdana, sans-serif;text-transform:none;font-weight:normal;fill:#000;" text-anchor="middle" transform="translate(0,0)" y="328" opacity="1">22.5</text></g><g class="highcharts-axis-labels highcharts-yaxis-labels"><text x="52" style="color:#000;cursor:default;font-size:11px;font-family:trebuchet ms, verdana, sans-serif;text-transform:none;font-weight:normal;fill:#000;width:188px;text-overflow:clip;" text-anchor="end" transform="translate(0,0)" y="314" opacity="1"><tspan>50</tspan></text><text x="52" style="color:#000;cursor:default;font-size:11px;font-family:trebuchet ms, verdana, sans-serif;text-transform:none;font-weight:normal;fill:#000;width:188px;text-overflow:clip;" text-anchor="end" transform="translate(0,0)" y="269" opacity="1"><tspan>60</tspan></text><text x="52" style="color:#000;cursor:default;font-size:11px;font-family:trebuchet ms, verdana, sans-serif;text-transform:none;font-weight:normal;fill:#000;width:188px;text-overflow:clip;" text-anchor="end" transform="translate(0,0)" y="225" opacity="1"><tspan>70</tspan></text><text x="52" style="color:#000;cursor:default;font-size:11px;font-family:trebuchet ms, verdana, sans-serif;text-transform:none;font-weight:normal;fill:#000;width:188px;text-overflow:clip;" text-anchor="end" transform="translate(0,0)" y="181" opacity="1"><tspan>80</tspan></text><text x="52" style="color:#000;cursor:default;font-size:11px;font-family:trebuchet ms, verdana, sans-serif;text-transform:none;font-weight:normal;fill:#000;width:188px;text-overflow:clip;" text-anchor="end" transform="translate(0,0)" y="137" opacity="1"><tspan>90</tspan></text><text x="52" style="color:#000;cursor:default;font-size:11px;font-family:trebuchet ms, verdana, sans-serif;text-transform:none;font-weight:normal;fill:#000;width:188px;text-overflow:clip;" text-anchor="end" transform="translate(0,0)" y="93" opacity="1"><tspan>100</tspan></text><text x="52" style="color:#000;cursor:default;font-size:11px;font-family:trebuchet ms, verdana, sans-serif;text-transform:none;font-weight:normal;fill:#000;width:188px;text-overflow:clip;" text-anchor="end" transform="translate(0,0)" y="49" opacity="1"><tspan>110</tspan></text></g><g class="highcharts-tooltip" display="none" style="cursor:default;padding:0;pointer-events:none;white-space:nowrap;" transform="translate(0,0)"><path fill="rgb(255, 255, 255)" fill-opacity=" 0.85" d="M 3.5 0.5 L 13.5 0.5 C 16.5 0.5 16.5 0.5 16.5 3.5 L 16.5 13.5 C 16.5 16.5 16.5 16.5 13.5 16.5 L 3.5 16.5 C 0.5 16.5 0.5 16.5 0.5 13.5 L 0.5 3.5 C 0.5 0.5 0.5 0.5 3.5 0.5"></path><text x="8" style="font-size:12px;color:#333;fill:#333;" y="20"></text></g><text x="590" text-anchor="end" style="cursor:pointer;color:#666;font-size:9px;fill:#666;" y="395">meta-chart.com</text></svg>