<?xml version="1.0" standalone="no"?><!DOCTYPE svg PUBLIC "-//W3C//DTD SVG 1.1//EN" "http://www.w3.org/Graphics/SVG/1.1/DTD/svg11.dtd"><svg xmlns:xlink="http://www.w3.org/1999/xlink" version="1.1" style="font-family:dosis, sans-serif;font-size:12px;" xmlns="http://www.w3.org/2000/svg" width="600" height="400"><desc>Created with Highcharts 4.2.7</desc><defs><linearGradient x1="0" y1="0" x2="1" y2="1" id="highcharts-208"><stop offset="0" stop-color="rgb(255, 255, 255)" stop-opacity="1"></stop><stop offset="1" stop-color="rgb(240, 240, 255)" stop-opacity="1"></stop></linearGradient><clipPath id="highcharts-209"><rect x="0" y="0" width="528" height="265"></rect></clipPath></defs><rect x="1" y="1" width="598" height="398" fill="url(#highcharts-208)" stroke="#4572a7" stroke-width="2" class=" highcharts-background"></rect><rect x="62" y="44" width="528" height="265" fill="none"  stroke="black" stroke-opacity="0.049999999999999996" stroke-width="5" transform="translate(1, 1)"></rect><rect x="62" y="44" width="528" height="265" fill="none"  stroke="black" stroke-opacity="0.09999999999999999" stroke-width="3" transform="translate(1, 1)"></rect><rect x="62" y="44" width="528" height="265" fill="none"  stroke="black" stroke-opacity="0.15" stroke-width="1" transform="translate(1, 1)"></rect><rect x="62" y="44" width="528" height="265" fill="rgb(255, 255, 255)" fill-opacity=" .9"></rect><g class="highcharts-grid"><path fill="none" d="M 61.5 44 L 61.5 309" stroke="#C0C0C0" stroke-width="1" opacity="1"></path><path fill="none" d="M 120.5 44 L 120.5 309" stroke="#C0C0C0" stroke-width="1" opacity="1"></path><path fill="none" d="M 178.5 44 L 178.5 309" stroke="#C0C0C0" stroke-width="1" opacity="1"></path><path fill="none" d="M 237.5 44 L 237.5 309" stroke="#C0C0C0" stroke-width="1" opacity="1"></path><path fill="none" d="M 296.5 44 L 296.5 309" stroke="#C0C0C0" stroke-width="1" opacity="1"></path><path fill="none" d="M 354.5 44 L 354.5 309" stroke="#C0C0C0" stroke-width="1" opacity="1"></path><path fill="none" d="M 413.5 44 L 413.5 309" stroke="#C0C0C0" stroke-width="1" opacity="1"></path><path fill="none" d="M 472.5 44 L 472.5 309" stroke="#C0C0C0" stroke-width="1" opacity="1"></path><path fill="none" d="M 530.5 44 L 530.5 309" stroke="#C0C0C0" stroke-width="1" opacity="1"></path><path fill="none" d="M 590.5 44 L 590.5 309" stroke="#C0C0C0" stroke-width="1" opacity="1"></path></g><g class="highcharts-grid"><path fill="none" d="M 62 309.5 L 590 309.5" stroke="#E0E0E0" stroke-width="1" opacity="1"></path><path fill="none" d="M 62 296.5 L 590 296.5" stroke="#E0E0E0" stroke-width="1" opacity="1"></path><path fill="none" d="M 62 283.5 L 590 283.5" stroke="#E0E0E0" stroke-width="1" opacity="1"></path><path fill="none" d="M 62 269.5 L 590 269.5" stroke="#E0E0E0" stroke-width="1" opacity="1"></path><path fill="none" d="M 62 256.5 L 590 256.5" stroke="#E0E0E0" stroke-width="1" opacity="1"></path><path fill="none" d="M 62 243.5 L 590 243.5" stroke="#E0E0E0" stroke-width="1" opacity="1"></path><path fill="none" d="M 62 230.5 L 590 230.5" stroke="#E0E0E0" stroke-width="1" opacity="1"></path><path fill="none" d="M 62 216.5 L 590 216.5" stroke="#E0E0E0" stroke-width="1" opacity="1"></path><path fill="none" d="M 62 203.5 L 590 203.5" stroke="#E0E0E0" stroke-width="1" opacity="1"></path><path fill="none" d="M 62 190.5 L 590 190.5" stroke="#E0E0E0" stroke-width="1" opacity="1"></path><path fill="none" d="M 62 177.5 L 590 177.5" stroke="#E0E0E0" stroke-width="1" opacity="1"></path><path fill="none" d="M 62 163.5 L 590 163.5" stroke="#E0E0E0" stroke-width="1" opacity="1"></path><path fill="none" d="M 62 150.5 L 590 150.5" stroke="#E0E0E0" stroke-width="1" opacity="1"></path><path fill="none" d="M 62 137.5 L 590 137.5" stroke="#E0E0E0" stroke-width="1" opacity="1"></path><path fill="none" d="M 62 124.5 L 590 124.5" stroke="#E0E0E0" stroke-width="1" opacity="1"></path><path fill="none" d="M 62 110.5 L 590 110.5" stroke="#E0E0E0" stroke-width="1" opacity="1"></path><path fill="none" d="M 62 97.5 L 590 97.5" stroke="#E0E0E0" stroke-width="1" opacity="1"></path><path fill="none" d="M 62 84.5 L 590 84.5" stroke="#E0E0E0" stroke-width="1" opacity="1"></path><path fill="none" d="M 62 71.5 L 590 71.5" stroke="#E0E0E0" stroke-width="1" opacity="1"></path><path fill="none" d="M 62 57.5 L 590 57.5" stroke="#E0E0E0" stroke-width="1" opacity="1"></path><path fill="none" d="M 62 43.5 L 590 43.5" stroke="#E0E0E0" stroke-width="1" opacity="1"></path><path fill="none" d="M 62 309.5 L 590 309.5" stroke="#C0C0C0" stroke-width="1" opacity="1"></path><path fill="none" d="M 62 243.5 L 590 243.5" stroke="#C0C0C0" stroke-width="1" opacity="1"></path><path fill="none" d="M 62 177.5 L 590 177.5" stroke="#C0C0C0" stroke-width="1" opacity="1"></path><path fill="none" d="M 62 110.5 L 590 110.5" stroke="#C0C0C0" stroke-width="1" opacity="1"></path><path fill="none" d="M 62 43.5 L 590 43.5" stroke="#C0C0C0" stroke-width="1" opacity="1"></path></g><rect x="61.5" y="43.5" width="529" height="266" fill="none"></rect><g class="highcharts-axis"><path fill="none" d="M 61.5 309 L 61.5 319" stroke="#000" stroke-width="1" opacity="1"></path><path fill="none" d="M 120.5 309 L 120.5 319" stroke="#000" stroke-width="1" opacity="1"></path><path fill="none" d="M 178.5 309 L 178.5 319" stroke="#000" stroke-width="1" opacity="1"></path><path fill="none" d="M 237.5 309 L 237.5 319" stroke="#000" stroke-width="1" opacity="1"></path><path fill="none" d="M 296.5 309 L 296.5 319" stroke="#000" stroke-width="1" opacity="1"></path><path fill="none" d="M 354.5 309 L 354.5 319" stroke="#000" stroke-width="1" opacity="1"></path><path fill="none" d="M 413.5 309 L 413.5 319" stroke="#000" stroke-width="1" opacity="1"></path><path fill="none" d="M 472.5 309 L 472.5 319" stroke="#000" stroke-width="1" opacity="1"></path><path fill="none" d="M 530.5 309 L 530.5 319" stroke="#000" stroke-width="1" opacity="1"></path><path fill="none" d="M 590.5 309 L 590.5 319" stroke="#000" stroke-width="1" opacity="1"></path><text x="326" text-anchor="middle" transform="translate(0,0)" class=" highcharts-xaxis-title" style="color:#333;font-size:12px;font-family:trebuchet ms, verdana, sans-serif;text-transform:none;font-weight:bold;fill:#333;" y="346.71875">Epoch</text><path fill="none" d="M 62 309.5 L 590 309.5" stroke="#000" stroke-width="1"></path></g><g class="highcharts-axis"><path fill="none" d="M 62 309.5 L 52 309.5" stroke="#000" stroke-width="1" opacity="1"></path><path fill="none" d="M 62 243.5 L 52 243.5" stroke="#000" stroke-width="1" opacity="1"></path><path fill="none" d="M 62 177.5 L 52 177.5" stroke="#000" stroke-width="1" opacity="1"></path><path fill="none" d="M 62 110.5 L 52 110.5" stroke="#000" stroke-width="1" opacity="1"></path><path fill="none" d="M 62 43.5 L 52 43.5" stroke="#000" stroke-width="1" opacity="1"></path><text x="24.875" text-anchor="middle" transform="translate(0,0) rotate(270 24.875 176.5)" class=" highcharts-yaxis-title" style="color:#333;font-size:12px;font-family:trebuchet ms, verdana, sans-serif;text-transform:none;font-weight:bold;fill:#333;" y="176.5"><tspan>Training Loss (percent)</tspan></text><path fill="none" d="M 61.5 44 L 61.5 309" stroke="#000" stroke-width="1"></path></g><g class="highcharts-series-group"><g class="highcharts-series highcharts-series-0" transform="translate(62,44) scale(1 1)" clip-path="url(#highcharts-209)"></g><g class="highcharts-markers highcharts-series-0" transform="translate(62,44) scale(1 1)" clip-path="none"><path fill="#50B432" d="M 469 251.095625 C 474.328 251.095625 474.328 259.09562500000004 469 259.09562500000004 C 463.672 259.09562500000004 463.672 251.095625 469 251.095625 Z"></path><path fill="#50B432" d="M 445 250.665 C 450.328 250.665 450.328 258.66499999999996 445 258.66499999999996 C 439.672 258.66499999999996 439.672 250.665 445 250.665 Z"></path><path fill="#50B432" d="M 422 251.029375 C 427.328 251.029375 427.328 259.02937499999996 422 259.02937499999996 C 416.672 259.02937499999996 416.672 251.029375 422 251.029375 Z"></path><path fill="#50B432" d="M 398 248.445625 C 403.328 248.445625 403.328 256.445625 398 256.445625 C 392.672 256.445625 392.672 248.445625 398 248.445625 Z"></path><path fill="#50B432" d="M 375 248.114375 C 380.328 248.114375 380.328 256.114375 375 256.114375 C 369.672 256.114375 369.672 248.114375 375 248.114375 Z"></path><path fill="#50B432" d="M 352 247.02125 C 357.328 247.02125 357.328 255.02125 352 255.02125 C 346.672 255.02125 346.672 247.02125 352 247.02125 Z"></path><path fill="#50B432" d="M 328 245.663125 C 333.328 245.663125 333.328 253.663125 328 253.663125 C 322.672 253.663125 322.672 245.663125 328 245.663125 Z"></path><path fill="#50B432" d="M 305 245.96125 C 310.328 245.96125 310.328 253.96125 305 253.96125 C 299.672 253.96125 299.672 245.96125 305 245.96125 Z"></path><path fill="#50B432" d="M 281 243.476875 C 286.328 243.476875 286.328 251.476875 281 251.476875 C 275.672 251.476875 275.672 243.476875 281 243.476875 Z"></path><path fill="#50B432" d="M 258 239.236875 C 263.328 239.236875 263.328 247.236875 258 247.236875 C 252.672 247.236875 252.672 239.236875 258 239.236875 Z"></path><path fill="#50B432" d="M 234 238.375625 C 239.328 238.375625 239.328 246.375625 234 246.375625 C 228.672 246.375625 228.672 238.375625 234 238.375625 Z"></path><path fill="#50B432" d="M 211 235.129375 C 216.328 235.129375 216.328 243.129375 211 243.129375 C 205.672 243.129375 205.672 235.129375 211 235.129375 Z"></path><path fill="#50B432" d="M 187 229.465 C 192.328 229.465 192.328 237.465 187 237.465 C 181.672 237.465 181.672 229.465 187 229.465 Z"></path><path fill="#50B432" d="M 164 223.866875 C 169.328 223.866875 169.328 231.866875 164 231.866875 C 158.672 231.866875 158.672 223.866875 164 223.866875 Z"></path><path fill="#50B432" d="M 140 220.5875 C 145.328 220.5875 145.328 228.5875 140 228.5875 C 134.672 228.5875 134.672 220.5875 140 220.5875 Z"></path><path fill="#50B432" d="M 117 207.53625 C 122.328 207.53625 122.328 215.53625 117 215.53625 C 111.672 215.53625 111.672 207.53625 117 207.53625 Z"></path><path fill="#50B432" d="M 93 188.025625 C 98.328 188.025625 98.328 196.025625 93 196.025625 C 87.672 196.025625 87.672 188.025625 93 188.025625 Z"></path><path fill="#50B432" d="M 70 160.598125 C 75.328 160.598125 75.328 168.598125 70 168.598125 C 64.672 168.598125 64.672 160.598125 70 160.598125 Z"></path><path fill="#50B432" d="M 46 109.519375 C 51.328 109.519375 51.328 117.519375 46 117.519375 C 40.672 117.519375 40.672 109.519375 46 109.519375 Z"></path><path fill="#50B432" d="M 23 35.385625000000005 C 28.328 35.385625000000005 28.328 43.385625000000005 23 43.385625000000005 C 17.672 43.385625000000005 17.672 35.385625000000005 23 35.385625000000005 Z"></path></g></g><text x="300" text-anchor="middle" class="highcharts-title" style="color:#000;font-size:16px;font-family:'trebuchet ms', verdana, sans-serif;text-transform:none;font-weight:bold;fill:#000;width:536px;" y="22"><tspan>Validation</tspan></text><g class="highcharts-legend" transform="translate(261,360)"><g><g><g class="highcharts-legend-item" transform="translate(8,3)"><path fill="#50B432" d="M 8 7 C 13.328 7 13.328 15 8 15 C 2.6719999999999997 15 2.6719999999999997 7 8 7 Z"></path><text x="21" style="color:black;font-size:9pt;font-weight:normal;cursor:pointer;font-family:trebuchet ms, verdana, sans-serif;text-transform:none;fill:black;" text-anchor="start" y="15"><tspan>Series 1</tspan></text></g></g></g></g><g class="highcharts-axis-labels highcharts-xaxis-labels"><text x="62" style="color:#000;cursor:default;font-size:11px;font-family:trebuchet ms, verdana, sans-serif;text-transform:none;font-weight:normal;fill:#000;" text-anchor="middle" transform="translate(0,0)" y="328" opacity="1">0</text><text x="120.66666666666666" style="color:#000;cursor:default;font-size:11px;font-family:trebuchet ms, verdana, sans-serif;text-transform:none;font-weight:normal;fill:#000;" text-anchor="middle" transform="translate(0,0)" y="328" opacity="1">2.5</text><text x="179.33333333333331" style="color:#000;cursor:default;font-size:11px;font-family:trebuchet ms, verdana, sans-serif;text-transform:none;font-weight:normal;fill:#000;" text-anchor="middle" transform="translate(0,0)" y="328" opacity="1">5</text><text x="238" style="color:#000;cursor:default;font-size:11px;font-family:trebuchet ms, verdana, sans-serif;text-transform:none;font-weight:normal;fill:#000;" text-anchor="middle" transform="translate(0,0)" y="328" opacity="1">7.5</text><text x="296.66666666666663" style="color:#000;cursor:default;font-size:11px;font-family:trebuchet ms, verdana, sans-serif;text-transform:none;font-weight:normal;fill:#000;" text-anchor="middle" transform="translate(0,0)" y="328" opacity="1">10</text><text x="355.3333333333333" style="color:#000;cursor:default;font-size:11px;font-family:trebuchet ms, verdana, sans-serif;text-transform:none;font-weight:normal;fill:#000;" text-anchor="middle" transform="translate(0,0)" y="328" opacity="1">12.5</text><text x="414" style="color:#000;cursor:default;font-size:11px;font-family:trebuchet ms, verdana, sans-serif;text-transform:none;font-weight:normal;fill:#000;" text-anchor="middle" transform="translate(0,0)" y="328" opacity="1">15</text><text x="472.66666666666663" style="color:#000;cursor:default;font-size:11px;font-family:trebuchet ms, verdana, sans-serif;text-transform:none;font-weight:normal;fill:#000;" text-anchor="middle" transform="translate(0,0)" y="328" opacity="1">17.5</text><text x="531.3333333333333" style="color:#000;cursor:default;font-size:11px;font-family:trebuchet ms, verdana, sans-serif;text-transform:none;font-weight:normal;fill:#000;" text-anchor="middle" transform="translate(0,0)" y="328" opacity="1">20</text><text x="579.328125" style="color:#000;cursor:default;font-size:11px;font-family:trebuchet ms, verdana, sans-serif;text-transform:none;font-weight:normal;fill:#000;" text-anchor="middle" transform="translate(0,0)" y="328" opacity="1">22.5</text></g><g class="highcharts-axis-labels highcharts-yaxis-labels"><text x="47" style="color:#000;cursor:default;font-size:11px;font-family:trebuchet ms, verdana, sans-serif;text-transform:none;font-weight:normal;fill:#000;width:188px;text-overflow:clip;" text-anchor="end" transform="translate(0,0)" y="314" opacity="1"><tspan>0</tspan></text><text x="47" style="color:#000;cursor:default;font-size:11px;font-family:trebuchet ms, verdana, sans-serif;text-transform:none;font-weight:normal;fill:#000;width:188px;text-overflow:clip;" text-anchor="end" transform="translate(0,0)" y="247" opacity="1"><tspan>20</tspan></text><text x="47" style="color:#000;cursor:default;font-size:11px;font-family:trebuchet ms, verdana, sans-serif;text-transform:none;font-weight:normal;fill:#000;width:188px;text-overflow:clip;" text-anchor="end" transform="translate(0,0)" y="181" opacity="1"><tspan>40</tspan></text><text x="47" style="color:#000;cursor:default;font-size:11px;font-family:trebuchet ms, verdana, sans-serif;text-transform:none;font-weight:normal;fill:#000;width:188px;text-overflow:clip;" text-anchor="end" transform="translate(0,0)" y="115" opacity="1"><tspan>60</tspan></text><text x="47" style="color:#000;cursor:default;font-size:11px;font-family:trebuchet ms, verdana, sans-serif;text-transform:none;font-weight:normal;fill:#000;width:188px;text-overflow:clip;" text-anchor="end" transform="translate(0,0)" y="49" opacity="1"><tspan>80</tspan></text></g><g class="highcharts-tooltip" display="none" style="cursor:default;padding:0;pointer-events:none;white-space:nowrap;" transform="translate(0,0)"><path fill="rgb(255, 255, 255)" fill-opacity=" 0.85" d="M 3.5 0.5 L 13.5 0.5 C 16.5 0.5 16.5 0.5 16.5 3.5 L 16.5 13.5 C 16.5 16.5 16.5 16.5 13.5 16.5 L 3.5 16.5 C 0.5 16.5 0.5 16.5 0.5 13.5 L 0.5 3.5 C 0.5 0.5 0.5 0.5 3.5 0.5"></path><text x="8" style="font-size:12px;color:#333;fill:#333;" y="20"></text></g><text x="590" text-anchor="end" style="cursor:pointer;color:#666;font-size:9px;fill:#666;" y="395">meta-chart.com</text></svg>